<?xml version="1.0" encoding="utf-8"?>
<svg viewBox="325.201 436.332 13.622 27.996" width="13.622" height="27.996" xmlns="http://www.w3.org/2000/svg">
  <path d="M 333.325 436.83 L 338.823 440.112 C 338.823 440.112 338.594 442.134 338.088 442.62 C 337.583 443.106 337.808 443.48 337.433 443.744 C 337.059 444.006 336.684 444.006 336.461 444.604 C 336.237 445.203 335.382 446.398 336.573 446.491 C 337.234 446.541 337.406 446.527 337.768 446.737 C 338.196 446.984 338.447 445.44 338.565 447.456 C 338.528 448.393 338.257 449.489 338.22 450.07 C 338.182 450.65 337.99 453.719 337.171 455.59 C 336.007 458.251 334.384 458.75 333.079 460.864 C 332.178 462.318 331.51 463.535 330.96 464.172 C 330.661 464.519 330.042 464.238 330.199 463.806 C 330.767 462.239 330.87 461.519 329.585 461.314 C 327.004 460.898 324.965 458.802 325.223 456.811 C 325.655 453.494 327.946 454.412 328.51 452.762 C 329.037 451.218 330.563 451.183 331.206 450.702 C 331.739 450.301 331.637 449.847 331.257 449.31 C 330.659 448.464 329.706 447.644 328.318 445.39 C 327.783 444.521 328.731 442.953 328.563 440.974 C 328.469 439.89 329.891 439.271 330.283 438.203 C 330.453 437.746 330.765 437.259 331.123 436.903 C 331.883 436.142 332.214 436.165 333.325 436.83 Z" style="fill: #1e88e5"/>
</svg>